<mxfile host="Electron" modified="2024-01-23T04:10:42.618Z" agent="Mozilla/5.0 (Windows NT 10.0; Win64; x64) AppleWebKit/537.36 (KHTML, like Gecko) draw.io/21.5.1 Chrome/112.0.5615.204 Electron/24.6.0 Safari/537.36" etag="QHT35NlJfXnY-1JeIYtp" version="21.5.1" type="device">
  <diagram name="第 1 页" id="5PH3Cmib-WskwF9FqD_c">
    <mxGraphModel dx="1446" dy="809" grid="1" gridSize="10" guides="1" tooltips="1" connect="1" arrows="1" fold="1" page="1" pageScale="1" pageWidth="827" pageHeight="1169" math="0" shadow="0">
      <root>
        <mxCell id="0" />
        <mxCell id="1" parent="0" />
        <mxCell id="t9FnheJT-Tbcl_Bm_-vB-3" style="edgeStyle=orthogonalEdgeStyle;rounded=0;orthogonalLoop=1;jettySize=auto;html=1;exitX=0;exitY=0.5;exitDx=0;exitDy=0;entryX=0.5;entryY=0;entryDx=0;entryDy=0;" edge="1" parent="1" source="t9FnheJT-Tbcl_Bm_-vB-1" target="t9FnheJT-Tbcl_Bm_-vB-2">
          <mxGeometry relative="1" as="geometry" />
        </mxCell>
        <mxCell id="t9FnheJT-Tbcl_Bm_-vB-13" style="edgeStyle=orthogonalEdgeStyle;rounded=0;orthogonalLoop=1;jettySize=auto;html=1;entryX=0.5;entryY=0;entryDx=0;entryDy=0;" edge="1" parent="1" source="t9FnheJT-Tbcl_Bm_-vB-1" target="t9FnheJT-Tbcl_Bm_-vB-5">
          <mxGeometry relative="1" as="geometry" />
        </mxCell>
        <mxCell id="t9FnheJT-Tbcl_Bm_-vB-14" style="edgeStyle=orthogonalEdgeStyle;rounded=0;orthogonalLoop=1;jettySize=auto;html=1;" edge="1" parent="1" source="t9FnheJT-Tbcl_Bm_-vB-1" target="t9FnheJT-Tbcl_Bm_-vB-4">
          <mxGeometry relative="1" as="geometry" />
        </mxCell>
        <mxCell id="t9FnheJT-Tbcl_Bm_-vB-1" value="主页" style="rounded=0;whiteSpace=wrap;html=1;" vertex="1" parent="1">
          <mxGeometry x="360" y="120" width="120" height="60" as="geometry" />
        </mxCell>
        <mxCell id="t9FnheJT-Tbcl_Bm_-vB-17" style="edgeStyle=orthogonalEdgeStyle;rounded=0;orthogonalLoop=1;jettySize=auto;html=1;entryX=0;entryY=0.25;entryDx=0;entryDy=0;" edge="1" parent="1" source="t9FnheJT-Tbcl_Bm_-vB-2" target="t9FnheJT-Tbcl_Bm_-vB-10">
          <mxGeometry relative="1" as="geometry" />
        </mxCell>
        <mxCell id="t9FnheJT-Tbcl_Bm_-vB-2" value="首页" style="rounded=0;whiteSpace=wrap;html=1;" vertex="1" parent="1">
          <mxGeometry x="200" y="240" width="120" height="60" as="geometry" />
        </mxCell>
        <mxCell id="t9FnheJT-Tbcl_Bm_-vB-18" style="edgeStyle=orthogonalEdgeStyle;rounded=0;orthogonalLoop=1;jettySize=auto;html=1;entryX=0.5;entryY=0;entryDx=0;entryDy=0;" edge="1" parent="1" source="t9FnheJT-Tbcl_Bm_-vB-4" target="t9FnheJT-Tbcl_Bm_-vB-10">
          <mxGeometry relative="1" as="geometry" />
        </mxCell>
        <mxCell id="t9FnheJT-Tbcl_Bm_-vB-4" value="购物车页" style="rounded=0;whiteSpace=wrap;html=1;" vertex="1" parent="1">
          <mxGeometry x="360" y="240" width="120" height="60" as="geometry" />
        </mxCell>
        <mxCell id="t9FnheJT-Tbcl_Bm_-vB-19" style="edgeStyle=orthogonalEdgeStyle;rounded=0;orthogonalLoop=1;jettySize=auto;html=1;entryX=1;entryY=0.25;entryDx=0;entryDy=0;" edge="1" parent="1" source="t9FnheJT-Tbcl_Bm_-vB-5" target="t9FnheJT-Tbcl_Bm_-vB-10">
          <mxGeometry relative="1" as="geometry" />
        </mxCell>
        <mxCell id="t9FnheJT-Tbcl_Bm_-vB-5" value="订单页" style="rounded=0;whiteSpace=wrap;html=1;" vertex="1" parent="1">
          <mxGeometry x="520" y="240" width="120" height="60" as="geometry" />
        </mxCell>
        <mxCell id="t9FnheJT-Tbcl_Bm_-vB-8" value="加入购物车页" style="rounded=0;whiteSpace=wrap;html=1;" vertex="1" parent="1">
          <mxGeometry x="200" y="440" width="120" height="60" as="geometry" />
        </mxCell>
        <mxCell id="t9FnheJT-Tbcl_Bm_-vB-9" value="直接结算页" style="rounded=0;whiteSpace=wrap;html=1;" vertex="1" parent="1">
          <mxGeometry x="520" y="440" width="120" height="60" as="geometry" />
        </mxCell>
        <mxCell id="t9FnheJT-Tbcl_Bm_-vB-12" style="edgeStyle=orthogonalEdgeStyle;rounded=0;orthogonalLoop=1;jettySize=auto;html=1;entryX=0.5;entryY=0;entryDx=0;entryDy=0;" edge="1" parent="1" source="t9FnheJT-Tbcl_Bm_-vB-10" target="t9FnheJT-Tbcl_Bm_-vB-9">
          <mxGeometry relative="1" as="geometry" />
        </mxCell>
        <mxCell id="t9FnheJT-Tbcl_Bm_-vB-15" style="edgeStyle=orthogonalEdgeStyle;rounded=0;orthogonalLoop=1;jettySize=auto;html=1;entryX=0.5;entryY=0;entryDx=0;entryDy=0;" edge="1" parent="1" source="t9FnheJT-Tbcl_Bm_-vB-10" target="t9FnheJT-Tbcl_Bm_-vB-8">
          <mxGeometry relative="1" as="geometry" />
        </mxCell>
        <mxCell id="t9FnheJT-Tbcl_Bm_-vB-10" value="商品详情页" style="rounded=0;whiteSpace=wrap;html=1;" vertex="1" parent="1">
          <mxGeometry x="360" y="360" width="120" height="60" as="geometry" />
        </mxCell>
        <mxCell id="t9FnheJT-Tbcl_Bm_-vB-21" value="" style="edgeStyle=orthogonalEdgeStyle;rounded=0;orthogonalLoop=1;jettySize=auto;html=1;" edge="1" parent="1" source="t9FnheJT-Tbcl_Bm_-vB-20" target="t9FnheJT-Tbcl_Bm_-vB-1">
          <mxGeometry relative="1" as="geometry" />
        </mxCell>
        <mxCell id="t9FnheJT-Tbcl_Bm_-vB-20" value="登录/注册页" style="rounded=0;whiteSpace=wrap;html=1;" vertex="1" parent="1">
          <mxGeometry x="360" y="40" width="120" height="60" as="geometry" />
        </mxCell>
      </root>
    </mxGraphModel>
  </diagram>
</mxfile>
